<svg xmlns="http://www.w3.org/2000/svg" viewBox="0 0 640 400" width="640" height="400" role="img" aria-label="A cart on an inclined plane at 20°" id="g-inclined-plane">
<rect class="paper" width="640" height="400" fill="#fff">
</rect>
<g stroke-linecap="round">
<line x1="22.81" y1="304.25" x2="617.19" y2="304.25" stroke="#111827" stroke-width="2.5">
</line>
<line x1="34.01" y1="304.25" x2="26.81" y2="313.25" stroke="#111827" stroke-width="1.3">
</line>
<line x1="47.01" y1="304.25" x2="39.81" y2="313.25" stroke="#111827" stroke-width="1.3">
</line>
<line x1="60.01" y1="304.25" x2="52.81" y2="313.25" stroke="#111827" stroke-width="1.3">
</line>
<line x1="73.01" y1="304.25" x2="65.81" y2="313.25" stroke="#111827" stroke-width="1.3">
</line>
<line x1="86.01" y1="304.25" x2="78.81" y2="313.25" stroke="#111827" stroke-width="1.3">
</line>
<line x1="99.01" y1="304.25" x2="91.81" y2="313.25" stroke="#111827" stroke-width="1.3">
</line>
<line x1="112.01" y1="304.25" x2="104.81" y2="313.25" stroke="#111827" stroke-width="1.3">
</line>
<line x1="125.01" y1="304.25" x2="117.81" y2="313.25" stroke="#111827" stroke-width="1.3">
</line>
<line x1="138.01" y1="304.25" x2="130.81" y2="313.25" stroke="#111827" stroke-width="1.3">
</line>
<line x1="151.01" y1="304.25" x2="143.81" y2="313.25" stroke="#111827" stroke-width="1.3">
</line>
<line x1="164.01" y1="304.25" x2="156.81" y2="313.25" stroke="#111827" stroke-width="1.3">
</line>
<line x1="177.01" y1="304.25" x2="169.81" y2="313.25" stroke="#111827" stroke-width="1.3">
</line>
<line x1="190.01" y1="304.25" x2="182.81" y2="313.25" stroke="#111827" stroke-width="1.3">
</line>
<line x1="203.01" y1="304.25" x2="195.81" y2="313.25" stroke="#111827" stroke-width="1.3">
</line>
<line x1="216.01" y1="304.25" x2="208.81" y2="313.25" stroke="#111827" stroke-width="1.3">
</line>
<line x1="229.01" y1="304.25" x2="221.81" y2="313.25" stroke="#111827" stroke-width="1.3">
</line>
<line x1="242.01" y1="304.25" x2="234.81" y2="313.25" stroke="#111827" stroke-width="1.3">
</line>
<line x1="255.01" y1="304.25" x2="247.81" y2="313.25" stroke="#111827" stroke-width="1.3">
</line>
<line x1="268.01" y1="304.25" x2="260.81" y2="313.25" stroke="#111827" stroke-width="1.3">
</line>
<line x1="281.01" y1="304.25" x2="273.81" y2="313.25" stroke="#111827" stroke-width="1.3">
</line>
<line x1="294.01" y1="304.25" x2="286.81" y2="313.25" stroke="#111827" stroke-width="1.3">
</line>
<line x1="307.01" y1="304.25" x2="299.81" y2="313.25" stroke="#111827" stroke-width="1.3">
</line>
<line x1="320.01" y1="304.25" x2="312.81" y2="313.25" stroke="#111827" stroke-width="1.3">
</line>
<line x1="333.01" y1="304.25" x2="325.81" y2="313.25" stroke="#111827" stroke-width="1.3">
</line>
<line x1="346.01" y1="304.25" x2="338.81" y2="313.25" stroke="#111827" stroke-width="1.3">
</line>
<line x1="359.01" y1="304.25" x2="351.81" y2="313.25" stroke="#111827" stroke-width="1.3">
</line>
<line x1="372.01" y1="304.25" x2="364.81" y2="313.25" stroke="#111827" stroke-width="1.3">
</line>
<line x1="385.01" y1="304.25" x2="377.81" y2="313.25" stroke="#111827" stroke-width="1.3">
</line>
<line x1="398.01" y1="304.25" x2="390.81" y2="313.25" stroke="#111827" stroke-width="1.3">
</line>
<line x1="411.01" y1="304.25" x2="403.81" y2="313.25" stroke="#111827" stroke-width="1.3">
</line>
<line x1="424.01" y1="304.25" x2="416.81" y2="313.25" stroke="#111827" stroke-width="1.3">
</line>
<line x1="437.01" y1="304.25" x2="429.81" y2="313.25" stroke="#111827" stroke-width="1.3">
</line>
<line x1="450.01" y1="304.25" x2="442.81" y2="313.25" stroke="#111827" stroke-width="1.3">
</line>
<line x1="463.01" y1="304.25" x2="455.81" y2="313.25" stroke="#111827" stroke-width="1.3">
</line>
<line x1="476.01" y1="304.25" x2="468.81" y2="313.25" stroke="#111827" stroke-width="1.3">
</line>
<line x1="489.01" y1="304.25" x2="481.81" y2="313.25" stroke="#111827" stroke-width="1.3">
</line>
<line x1="502.01" y1="304.25" x2="494.81" y2="313.25" stroke="#111827" stroke-width="1.3">
</line>
<line x1="515.01" y1="304.25" x2="507.81" y2="313.25" stroke="#111827" stroke-width="1.3">
</line>
<line x1="528.01" y1="304.25" x2="520.81" y2="313.25" stroke="#111827" stroke-width="1.3">
</line>
<line x1="541.01" y1="304.25" x2="533.81" y2="313.25" stroke="#111827" stroke-width="1.3">
</line>
<line x1="554.01" y1="304.25" x2="546.81" y2="313.25" stroke="#111827" stroke-width="1.3">
</line>
<line x1="567.01" y1="304.25" x2="559.81" y2="313.25" stroke="#111827" stroke-width="1.3">
</line>
<line x1="580.01" y1="304.25" x2="572.81" y2="313.25" stroke="#111827" stroke-width="1.3">
</line>
<line x1="593.01" y1="304.25" x2="585.81" y2="313.25" stroke="#111827" stroke-width="1.3">
</line>
<line x1="606.01" y1="304.25" x2="598.81" y2="313.25" stroke="#111827" stroke-width="1.3">
</line>
<line x1="619.01" y1="304.25" x2="611.81" y2="313.25" stroke="#111827" stroke-width="1.3">
</line>
<path d="M52.81,304.25 L587.19,304.25 L587.19,109.75 Z" fill="#f3f4f6" stroke="#111827" stroke-width="2.5" stroke-linejoin="round">
</path>
<path d="M62.42,0 A62.42,62.42 0 0 0 58.66,-21.35" transform="translate(52.81 304.25)" fill="none" stroke="#111827" stroke-width="1.5">
</path>
<g transform="translate(346.72 197.28) rotate(-20)">
<rect x="-42" y="-44" width="84" height="32.296" rx="4" fill="#e5e7eb" stroke="#111827" stroke-width="2.5">
</rect>
<circle cx="-25.2" cy="-8.36" r="8.36" fill="#fff" stroke="#111827" stroke-width="2.5">
</circle>
<circle cx="25.2" cy="-8.36" r="8.36" fill="#fff" stroke="#111827" stroke-width="2.5">
</circle>
</g>
<line x1="268.27" y1="157.73" x2="311.68" y2="141.93" stroke="#111827" stroke-width="3" stroke-dasharray="7.88 4.92" stroke-linecap="butt">
</line>
<polygon points="259.06,161.08 270.2,150.77 274.23,161.82" fill="#111827">
</polygon>
<line x1="255.27" y1="122.02" x2="298.68" y2="106.22" stroke="#111827" stroke-width="3" stroke-dasharray="7.88 4.92" stroke-linecap="butt">
</line>
<polygon points="246.06,125.37 257.2,115.06 261.23,126.11" fill="#111827">
</polygon>
</g>
<text x="142.48" y="295.64" text-anchor="middle" font-family="'Times New Roman', Times, serif" font-size="22" fill="#111827" stroke="#fff" stroke-width="4" stroke-linejoin="round" paint-order="stroke">
<tspan>
<tspan>20°</tspan>
</tspan>
</text>
<text x="337.19" y="176.17000000000002" text-anchor="middle" font-family="'Times New Roman', Times, serif" font-size="22" fill="#111827" stroke-linejoin="round" paint-order="stroke">
<tspan>
<tspan font-style="italic">m</tspan>
</tspan>
</text>
<text x="279.9" y="144.17" text-anchor="middle" font-family="'Times New Roman', Times, serif" font-size="22" fill="#111827" stroke="#fff" stroke-width="4" stroke-linejoin="round" paint-order="stroke">
<tspan>
<tspan font-style="italic">v</tspan>
</tspan>
</text>
<text x="266.9" y="108.46000000000001" text-anchor="middle" font-family="'Times New Roman', Times, serif" font-size="22" fill="#111827" stroke="#fff" stroke-width="4" stroke-linejoin="round" paint-order="stroke">
<tspan>
<tspan font-style="italic">a</tspan>
</tspan>
</text>
</svg>
