<svg xmlns="http://www.w3.org/2000/svg" viewBox="0 0 640 468" width="640" height="468" role="img" aria-label="An Atwood machine: two objects hanging from a string over a pulley" id="g-pulley">
<rect class="paper" width="640" height="468" fill="#fff">
</rect>
<g fill="none" stroke-linecap="round">
<line x1="210" y1="34" x2="430" y2="34" stroke="#111827" stroke-width="2.5">
</line>
<line x1="214" y1="34" x2="222" y2="24" stroke="#111827" stroke-width="1.3">
</line>
<line x1="227" y1="34" x2="235" y2="24" stroke="#111827" stroke-width="1.3">
</line>
<line x1="240" y1="34" x2="248" y2="24" stroke="#111827" stroke-width="1.3">
</line>
<line x1="253" y1="34" x2="261" y2="24" stroke="#111827" stroke-width="1.3">
</line>
<line x1="266" y1="34" x2="274" y2="24" stroke="#111827" stroke-width="1.3">
</line>
<line x1="279" y1="34" x2="287" y2="24" stroke="#111827" stroke-width="1.3">
</line>
<line x1="292" y1="34" x2="300" y2="24" stroke="#111827" stroke-width="1.3">
</line>
<line x1="305" y1="34" x2="313" y2="24" stroke="#111827" stroke-width="1.3">
</line>
<line x1="318" y1="34" x2="326" y2="24" stroke="#111827" stroke-width="1.3">
</line>
<line x1="331" y1="34" x2="339" y2="24" stroke="#111827" stroke-width="1.3">
</line>
<line x1="344" y1="34" x2="352" y2="24" stroke="#111827" stroke-width="1.3">
</line>
<line x1="357" y1="34" x2="365" y2="24" stroke="#111827" stroke-width="1.3">
</line>
<line x1="370" y1="34" x2="378" y2="24" stroke="#111827" stroke-width="1.3">
</line>
<line x1="383" y1="34" x2="391" y2="24" stroke="#111827" stroke-width="1.3">
</line>
<line x1="396" y1="34" x2="404" y2="24" stroke="#111827" stroke-width="1.3">
</line>
<line x1="409" y1="34" x2="417" y2="24" stroke="#111827" stroke-width="1.3">
</line>
<line x1="320" y1="34" x2="320" y2="118" stroke="#111827" stroke-width="3">
</line>
<polyline points="276,118 276,246" stroke="#111827" stroke-width="2.2" stroke-linejoin="round">
</polyline>
<polyline points="364,118 364,186" stroke="#111827" stroke-width="2.2" stroke-linejoin="round">
</polyline>
<circle cx="320" cy="118" r="44" fill="#f3f4f6" stroke="#111827" stroke-width="2.5">
</circle>
<circle cx="320" cy="118" r="13.2" stroke="#111827" stroke-width="1.5">
</circle>
<circle cx="320" cy="118" r="3" fill="#111827">
</circle>
<path d="M276,118 A44,44 0 0 1 364,118" stroke="#111827" stroke-width="2.2">
</path>
<g transform="translate(276 358) rotate(0)">
<rect x="-56" y="-112" width="112" height="112" rx="2" fill="#e5e7eb" stroke="#111827" stroke-width="2.5">
</rect>
</g>
<g transform="translate(364 214) rotate(0)">
<rect x="-14" y="-28" width="28" height="28" rx="2" fill="#e5e7eb" stroke="#111827" stroke-width="2.5">
</rect>
</g>
<line x1="276" y1="202.04" x2="276" y2="246" stroke="#111827" stroke-width="3" stroke-linecap="butt">
</line>
<polygon points="276,192.24 281.88,206.24 270.12,206.24" fill="#111827">
</polygon>
<line x1="276" y1="161.96" x2="276" y2="118" stroke="#111827" stroke-width="3" stroke-linecap="butt">
</line>
<polygon points="276,171.76 270.12,157.76 281.88,157.76" fill="#111827">
</polygon>
<line x1="364" y1="167.24" x2="364" y2="186" stroke="#111827" stroke-width="3" stroke-linecap="butt">
</line>
<polygon points="364,157.44 369.88,171.44 358.12,171.44" fill="#111827">
</polygon>
<line x1="364" y1="136.76" x2="364" y2="118" stroke="#111827" stroke-width="3" stroke-linecap="butt">
</line>
<polygon points="364,146.56 358.12,132.56 369.88,132.56" fill="#111827">
</polygon>
<line x1="276" y1="408.2" x2="276" y2="358" stroke="#111827" stroke-width="3" stroke-linecap="butt">
</line>
<polygon points="276,418 270.12,404 281.88,404" fill="#111827">
</polygon>
<line x1="364" y1="264.2" x2="364" y2="214" stroke="#111827" stroke-width="3" stroke-linecap="butt">
</line>
<polygon points="364,274 358.12,260 369.88,260" fill="#111827">
</polygon>
<line x1="204" y1="317.2" x2="204" y2="277" stroke="#111827" stroke-width="3" stroke-dasharray="9.27 5.79" stroke-linecap="butt">
</line>
<polygon points="204,327 198.12,313 209.88,313" fill="#111827">
</polygon>
<line x1="394" y1="184.8" x2="394" y2="225" stroke="#111827" stroke-width="3" stroke-dasharray="9.27 5.79" stroke-linecap="butt">
</line>
<polygon points="394,175 399.88,189 388.12,189" fill="#111827">
</polygon>
</g>
<text x="259.38" y="226.82" text-anchor="middle" font-family="'Times New Roman', Times, serif" font-size="22" fill="#111827" stroke="#fff" stroke-width="4" stroke-linejoin="round" paint-order="stroke">
<tspan>
<tspan font-style="italic">T</tspan>
</tspan>
</text>
<text x="259.38" y="152.57999999999998" text-anchor="middle" font-family="'Times New Roman', Times, serif" font-size="22" fill="#111827" stroke="#fff" stroke-width="4" stroke-linejoin="round" paint-order="stroke">
<tspan>
<tspan font-style="italic">T</tspan>
</tspan>
</text>
<text x="380.62" y="179.42" text-anchor="middle" font-family="'Times New Roman', Times, serif" font-size="22" fill="#111827" stroke="#fff" stroke-width="4" stroke-linejoin="round" paint-order="stroke">
<tspan>
<tspan font-style="italic">T</tspan>
</tspan>
</text>
<text x="380.62" y="139.98" text-anchor="middle" font-family="'Times New Roman', Times, serif" font-size="22" fill="#111827" stroke="#fff" stroke-width="4" stroke-linejoin="round" paint-order="stroke">
<tspan>
<tspan font-style="italic">T</tspan>
</tspan>
</text>
<text x="276" y="448.7" text-anchor="middle" font-family="'Times New Roman', Times, serif" font-size="22" fill="#111827" stroke="#fff" stroke-width="4" stroke-linejoin="round" paint-order="stroke">
<tspan>
<tspan font-style="italic">m</tspan>
</tspan>
<tspan dy="6.6" font-size="15.399999999999999">
<tspan>1</tspan>
</tspan>
<tspan dy="-6.6">
<tspan> </tspan>
<tspan font-style="italic">g</tspan>
</tspan>
</text>
<text x="364" y="304.7" text-anchor="middle" font-family="'Times New Roman', Times, serif" font-size="22" fill="#111827" stroke="#fff" stroke-width="4" stroke-linejoin="round" paint-order="stroke">
<tspan>
<tspan font-style="italic">m</tspan>
</tspan>
<tspan dy="6.6" font-size="15.399999999999999">
<tspan>2</tspan>
</tspan>
<tspan dy="-6.6">
<tspan> </tspan>
<tspan font-style="italic">g</tspan>
</tspan>
</text>
<text x="187.38" y="309.7" text-anchor="middle" font-family="'Times New Roman', Times, serif" font-size="22" fill="#111827" stroke="#fff" stroke-width="4" stroke-linejoin="round" paint-order="stroke">
<tspan>
<tspan font-style="italic">a</tspan>
</tspan>
</text>
<text x="410.62" y="207.7" text-anchor="middle" font-family="'Times New Roman', Times, serif" font-size="22" fill="#111827" stroke="#fff" stroke-width="4" stroke-linejoin="round" paint-order="stroke">
<tspan>
<tspan font-style="italic">a</tspan>
</tspan>
</text>
<text x="276" y="309.7" text-anchor="middle" font-family="'Times New Roman', Times, serif" font-size="22" fill="#111827" stroke-linejoin="round" paint-order="stroke">
<tspan>
<tspan font-style="italic">m</tspan>
</tspan>
<tspan dy="6.6" font-size="15.399999999999999">
<tspan>1</tspan>
</tspan>
</text>
<text x="364" y="207.7" text-anchor="middle" font-family="'Times New Roman', Times, serif" font-size="22" fill="#111827" stroke-linejoin="round" paint-order="stroke">
<tspan>
<tspan font-style="italic">m</tspan>
</tspan>
<tspan dy="6.6" font-size="15.399999999999999">
<tspan>2</tspan>
</tspan>
</text>
</svg>
