<svg xmlns="http://www.w3.org/2000/svg" viewBox="0 0 640 504" width="640" height="504" role="img" aria-label="An object on a table tied over a pulley at its edge to a hanging object" id="g-pulley">
<rect class="paper" width="640" height="504" fill="#fff">
</rect>
<g fill="none" stroke-linecap="round">
<line x1="20" y1="474" x2="620" y2="474" stroke="#111827" stroke-width="2.5">
</line>
<line x1="31.2" y1="474" x2="24" y2="483" stroke="#111827" stroke-width="1.3">
</line>
<line x1="44.2" y1="474" x2="37" y2="483" stroke="#111827" stroke-width="1.3">
</line>
<line x1="57.2" y1="474" x2="50" y2="483" stroke="#111827" stroke-width="1.3">
</line>
<line x1="70.2" y1="474" x2="63" y2="483" stroke="#111827" stroke-width="1.3">
</line>
<line x1="83.2" y1="474" x2="76" y2="483" stroke="#111827" stroke-width="1.3">
</line>
<line x1="96.2" y1="474" x2="89" y2="483" stroke="#111827" stroke-width="1.3">
</line>
<line x1="109.2" y1="474" x2="102" y2="483" stroke="#111827" stroke-width="1.3">
</line>
<line x1="122.2" y1="474" x2="115" y2="483" stroke="#111827" stroke-width="1.3">
</line>
<line x1="135.2" y1="474" x2="128" y2="483" stroke="#111827" stroke-width="1.3">
</line>
<line x1="148.2" y1="474" x2="141" y2="483" stroke="#111827" stroke-width="1.3">
</line>
<line x1="161.2" y1="474" x2="154" y2="483" stroke="#111827" stroke-width="1.3">
</line>
<line x1="174.2" y1="474" x2="167" y2="483" stroke="#111827" stroke-width="1.3">
</line>
<line x1="187.2" y1="474" x2="180" y2="483" stroke="#111827" stroke-width="1.3">
</line>
<line x1="200.2" y1="474" x2="193" y2="483" stroke="#111827" stroke-width="1.3">
</line>
<line x1="213.2" y1="474" x2="206" y2="483" stroke="#111827" stroke-width="1.3">
</line>
<line x1="226.2" y1="474" x2="219" y2="483" stroke="#111827" stroke-width="1.3">
</line>
<line x1="239.2" y1="474" x2="232" y2="483" stroke="#111827" stroke-width="1.3">
</line>
<line x1="252.2" y1="474" x2="245" y2="483" stroke="#111827" stroke-width="1.3">
</line>
<line x1="265.2" y1="474" x2="258" y2="483" stroke="#111827" stroke-width="1.3">
</line>
<line x1="278.2" y1="474" x2="271" y2="483" stroke="#111827" stroke-width="1.3">
</line>
<line x1="291.2" y1="474" x2="284" y2="483" stroke="#111827" stroke-width="1.3">
</line>
<line x1="304.2" y1="474" x2="297" y2="483" stroke="#111827" stroke-width="1.3">
</line>
<line x1="317.2" y1="474" x2="310" y2="483" stroke="#111827" stroke-width="1.3">
</line>
<line x1="330.2" y1="474" x2="323" y2="483" stroke="#111827" stroke-width="1.3">
</line>
<line x1="343.2" y1="474" x2="336" y2="483" stroke="#111827" stroke-width="1.3">
</line>
<line x1="356.2" y1="474" x2="349" y2="483" stroke="#111827" stroke-width="1.3">
</line>
<line x1="369.2" y1="474" x2="362" y2="483" stroke="#111827" stroke-width="1.3">
</line>
<line x1="382.2" y1="474" x2="375" y2="483" stroke="#111827" stroke-width="1.3">
</line>
<line x1="395.2" y1="474" x2="388" y2="483" stroke="#111827" stroke-width="1.3">
</line>
<line x1="408.2" y1="474" x2="401" y2="483" stroke="#111827" stroke-width="1.3">
</line>
<line x1="421.2" y1="474" x2="414" y2="483" stroke="#111827" stroke-width="1.3">
</line>
<line x1="434.2" y1="474" x2="427" y2="483" stroke="#111827" stroke-width="1.3">
</line>
<line x1="447.2" y1="474" x2="440" y2="483" stroke="#111827" stroke-width="1.3">
</line>
<line x1="460.2" y1="474" x2="453" y2="483" stroke="#111827" stroke-width="1.3">
</line>
<line x1="473.2" y1="474" x2="466" y2="483" stroke="#111827" stroke-width="1.3">
</line>
<line x1="486.2" y1="474" x2="479" y2="483" stroke="#111827" stroke-width="1.3">
</line>
<line x1="499.2" y1="474" x2="492" y2="483" stroke="#111827" stroke-width="1.3">
</line>
<line x1="512.2" y1="474" x2="505" y2="483" stroke="#111827" stroke-width="1.3">
</line>
<line x1="525.2" y1="474" x2="518" y2="483" stroke="#111827" stroke-width="1.3">
</line>
<line x1="538.2" y1="474" x2="531" y2="483" stroke="#111827" stroke-width="1.3">
</line>
<line x1="551.2" y1="474" x2="544" y2="483" stroke="#111827" stroke-width="1.3">
</line>
<line x1="564.2" y1="474" x2="557" y2="483" stroke="#111827" stroke-width="1.3">
</line>
<line x1="577.2" y1="474" x2="570" y2="483" stroke="#111827" stroke-width="1.3">
</line>
<line x1="590.2" y1="474" x2="583" y2="483" stroke="#111827" stroke-width="1.3">
</line>
<line x1="603.2" y1="474" x2="596" y2="483" stroke="#111827" stroke-width="1.3">
</line>
<line x1="616.2" y1="474" x2="609" y2="483" stroke="#111827" stroke-width="1.3">
</line>
<rect x="62" y="236" width="14" height="238" fill="#f3f4f6" stroke="#111827" stroke-width="2">
</rect>
<rect x="374" y="236" width="14" height="238" fill="#f3f4f6" stroke="#111827" stroke-width="2">
</rect>
<rect x="50" y="220" width="350" height="16" fill="#f3f4f6" stroke="#111827" stroke-width="2.5">
</rect>
<line x1="400" y1="228" x2="448" y2="198" stroke="#111827" stroke-width="3">
</line>
<polyline points="310,164 448,164" stroke="#111827" stroke-width="2.2" stroke-linejoin="round">
</polyline>
<polyline points="482,198 482,256" stroke="#111827" stroke-width="2.2" stroke-linejoin="round">
</polyline>
<circle cx="448" cy="198" r="34" fill="#f3f4f6" stroke="#111827" stroke-width="2.5">
</circle>
<circle cx="448" cy="198" r="10.2" stroke="#111827" stroke-width="1.5">
</circle>
<circle cx="448" cy="198" r="3" fill="#111827">
</circle>
<path d="M448,164 A34,34 0 0 1 482,198" stroke="#111827" stroke-width="2.2">
</path>
<g transform="translate(254 220) rotate(0)">
<rect x="-56" y="-112" width="112" height="112" rx="2" fill="#e5e7eb" stroke="#111827" stroke-width="2.5">
</rect>
</g>
<g transform="translate(482 368) rotate(0)">
<rect x="-56" y="-112" width="112" height="112" rx="2" fill="#e5e7eb" stroke="#111827" stroke-width="2.5">
</rect>
</g>
<line x1="356.2" y1="164" x2="310" y2="164" stroke="#111827" stroke-width="3" stroke-linecap="butt">
</line>
<polygon points="366,164 352,169.88 352,158.12" fill="#111827">
</polygon>
<line x1="401.8" y1="164" x2="448" y2="164" stroke="#111827" stroke-width="3" stroke-linecap="butt">
</line>
<polygon points="392,164 406,158.12 406,169.88" fill="#111827">
</polygon>
<line x1="482" y1="241.44" x2="482" y2="256" stroke="#111827" stroke-width="3" stroke-linecap="butt">
</line>
<polygon points="482,231.64 487.88,245.64 476.12,245.64" fill="#111827">
</polygon>
<line x1="482" y1="212.56" x2="482" y2="198" stroke="#111827" stroke-width="3" stroke-linecap="butt">
</line>
<polygon points="482,222.36 476.12,208.36 487.88,208.36" fill="#111827">
</polygon>
<line x1="254" y1="270.2" x2="254" y2="220" stroke="#111827" stroke-width="3" stroke-linecap="butt">
</line>
<polygon points="254,280 248.12,266 259.88,266" fill="#111827">
</polygon>
<line x1="482" y1="418.2" x2="482" y2="368" stroke="#111827" stroke-width="3" stroke-linecap="butt">
</line>
<polygon points="482,428 476.12,414 487.88,414" fill="#111827">
</polygon>
<line x1="254" y1="57.8" x2="254" y2="108" stroke="#111827" stroke-width="3" stroke-linecap="butt">
</line>
<polygon points="254,48 259.88,62 248.12,62" fill="#111827">
</polygon>
<line x1="351.2" y1="211" x2="310" y2="211" stroke="#111827" stroke-width="3" stroke-linecap="butt">
</line>
<polygon points="361,211 347,216.88 347,205.12" fill="#111827">
</polygon>
<line x1="199.8" y1="88" x2="240" y2="88" stroke="#111827" stroke-width="3" stroke-dasharray="9.27 5.79" stroke-linecap="butt">
</line>
<polygon points="190,88 204,82.12 204,93.88" fill="#111827">
</polygon>
<line x1="554" y1="296.8" x2="554" y2="337" stroke="#111827" stroke-width="3" stroke-dasharray="9.27 5.79" stroke-linecap="butt">
</line>
<polygon points="554,287 559.88,301 548.12,301" fill="#111827">
</polygon>
</g>
<text x="338" y="155.07999999999998" text-anchor="middle" font-family="'Times New Roman', Times, serif" font-size="22" fill="#111827" stroke="#fff" stroke-width="4" stroke-linejoin="round" paint-order="stroke">
<tspan>
<tspan font-style="italic">T</tspan>
</tspan>
</text>
<text x="420" y="155.07999999999998" text-anchor="middle" font-family="'Times New Roman', Times, serif" font-size="22" fill="#111827" stroke="#fff" stroke-width="4" stroke-linejoin="round" paint-order="stroke">
<tspan>
<tspan font-style="italic">T</tspan>
</tspan>
</text>
<text x="498.62" y="251.51999999999998" text-anchor="middle" font-family="'Times New Roman', Times, serif" font-size="22" fill="#111827" stroke="#fff" stroke-width="4" stroke-linejoin="round" paint-order="stroke">
<tspan>
<tspan font-style="italic">T</tspan>
</tspan>
</text>
<text x="498.62" y="217.88" text-anchor="middle" font-family="'Times New Roman', Times, serif" font-size="22" fill="#111827" stroke="#fff" stroke-width="4" stroke-linejoin="round" paint-order="stroke">
<tspan>
<tspan font-style="italic">T</tspan>
</tspan>
</text>
<text x="254" y="310.7" text-anchor="middle" font-family="'Times New Roman', Times, serif" font-size="22" fill="#111827" stroke="#fff" stroke-width="4" stroke-linejoin="round" paint-order="stroke">
<tspan>
<tspan font-style="italic">m</tspan>
</tspan>
<tspan dy="6.6" font-size="15.399999999999999">
<tspan>1</tspan>
</tspan>
<tspan dy="-6.6">
<tspan> </tspan>
<tspan font-style="italic">g</tspan>
</tspan>
</text>
<text x="482" y="458.7" text-anchor="middle" font-family="'Times New Roman', Times, serif" font-size="22" fill="#111827" stroke="#fff" stroke-width="4" stroke-linejoin="round" paint-order="stroke">
<tspan>
<tspan font-style="italic">m</tspan>
</tspan>
<tspan dy="6.6" font-size="15.399999999999999">
<tspan>2</tspan>
</tspan>
<tspan dy="-6.6">
<tspan> </tspan>
<tspan font-style="italic">g</tspan>
</tspan>
</text>
<text x="254" y="32.7" text-anchor="middle" font-family="'Times New Roman', Times, serif" font-size="22" fill="#111827" stroke="#fff" stroke-width="4" stroke-linejoin="round" paint-order="stroke">
<tspan>
<tspan font-style="italic">F</tspan>
</tspan>
<tspan dy="6.6" font-size="15.399999999999999">
<tspan font-style="italic">N</tspan>
</tspan>
</text>
<text x="386.86" y="218.7" text-anchor="middle" font-family="'Times New Roman', Times, serif" font-size="22" fill="#111827" stroke="#fff" stroke-width="4" stroke-linejoin="round" paint-order="stroke">
<tspan>
<tspan font-style="italic">F</tspan>
</tspan>
<tspan dy="6.6" font-size="15.399999999999999">
<tspan font-style="italic">f</tspan>
</tspan>
</text>
<text x="215" y="79.08" text-anchor="middle" font-family="'Times New Roman', Times, serif" font-size="22" fill="#111827" stroke="#fff" stroke-width="4" stroke-linejoin="round" paint-order="stroke">
<tspan>
<tspan font-style="italic">a</tspan>
</tspan>
</text>
<text x="570.62" y="319.7" text-anchor="middle" font-family="'Times New Roman', Times, serif" font-size="22" fill="#111827" stroke="#fff" stroke-width="4" stroke-linejoin="round" paint-order="stroke">
<tspan>
<tspan font-style="italic">a</tspan>
</tspan>
</text>
<text x="254" y="171.7" text-anchor="middle" font-family="'Times New Roman', Times, serif" font-size="22" fill="#111827" stroke-linejoin="round" paint-order="stroke">
<tspan>
<tspan font-style="italic">m</tspan>
</tspan>
<tspan dy="6.6" font-size="15.399999999999999">
<tspan>1</tspan>
</tspan>
</text>
<text x="482" y="319.7" text-anchor="middle" font-family="'Times New Roman', Times, serif" font-size="22" fill="#111827" stroke-linejoin="round" paint-order="stroke">
<tspan>
<tspan font-style="italic">m</tspan>
</tspan>
<tspan dy="6.6" font-size="15.399999999999999">
<tspan>2</tspan>
</tspan>
</text>
</svg>
